<svg version="1.1" id="type" xmlns="http://www.w3.org/2000/svg" x="0" y="0" width="135" height="135" viewBox="0 0 204 204" xml:space="preserve"><style>.st1{fill:#f8bf5d}</style><circle cx="102" cy="102" r="101.1" fill="#fff"/><path class="st1" d="M102 1.8c55.3 0 100.2 44.8 100.2 100.2S157.3 202.2 102 202.2 1.8 157.3 1.8 102C1.9 46.7 46.7 1.9 102 1.8m0-1.8C45.7 0 0 45.7 0 102s45.7 102 102 102 102-45.7 102-102S158.3 0 102 0z"/><path class="st1" d="M107.6 124.6l-8 32.1c-.2.4-.6.6-1.1.5-.3-.1-.6-.5-.5-.8l-1.8-33-16.7 10.2c-.4.2-.9.1-1.1-.4-.2-.3-.1-.7.1-.9l8.1-12.7-39.3 4.1c-.4.1-.8-.2-.9-.6-.1-.4.1-.9.5-1l29.9-12.3-28.1-4.6c-.4-.1-.7-.5-.6-.9.1-.4.4-.7.9-.7l36.7-2.2L67 64.9c-.2-.4-.1-.8.2-1.1.3-.3.8-.2 1.1.1L98.2 93l7.8-50c0-.5.4-.8.9-.8s.8.4.8.9l1.7 50.2 10.3-11c.3-.3.8-.4 1.2 0 .2.2.3.5.2.8l-.2 11.7 30.5-13.9c.4-.2.8 0 1 .3.2.4.2.8-.2 1.1l-30.8 24.6 21.5 11.8c.4.2.5.6.4 1-.1.4-.5.6-.9.6l-22.3-.6 23.1 34.3c28.5-22.6 33.2-64.1 10.6-92.5S89.6 28.3 61.1 50.9 27.9 115 50.6 143.4c21.2 26.7 59.3 32.8 87.8 14l-30.8-32.8z"/><path d="M32.5 134.2l-1.3 1c1.4.2 2.6 1 3.3 2.3.6 1.1.8 2.5.4 3.7-.5 1.8-1.9 2.9-4 4-1.8 1-3.6 1.6-5.5 1-2.6-.9-4.1-3.8-3.3-6.4.3-.9.9-1.7 1.7-2.2l.8 1.5c-.5.3-.8.7-1 1.2-.3.9-.2 1.9.3 2.7.4.8 1.1 1.4 2 1.6 1.5.4 3.1-.3 4.3-.9s2.8-1.6 3.2-3c.3-.8.2-1.7-.3-2.5-.4-.8-1.1-1.4-1.9-1.7-1.2-.3-2.4-.1-3.5.6l1.6 3.1-1.4.7-2.3-4.4 6.2-3.3.7 1zM29.2 124.9c.9 2.8-.3 5.1-3.4 6l-7.9 2.5-.5-1.6 7.9-2.5c2-.6 3-1.9 2.4-4s-2.2-2.6-4.2-1.9l-7.9 2.5-.5-1.6 7.8-2.5c3.2-.9 5.5.3 6.3 3.1zM26.7 115.6l-12.8 2.2-.3-1.7 12.8-2.1.3 1.6zM24.1 100.8c.9.9 1.4 2.1 1.4 3.4l.1 4.5-13 .4-.1-4.5c-.1-1.3.4-2.5 1.2-3.4 1.2-1.5 3.2-1.8 5.1-1.8s3.9 0 5.3 1.4zm-9.3 1.4c-.6.6-.9 1.5-.8 2.3l.1 2.9 10-.3-.1-2.9c0-.9-.4-1.7-1-2.3-1.1-1-2.8-1-4.1-1s-3 .2-4.1 1.3zM25.7 95.3l-12.9-1.8L14 85l1.5.2-1 7 3.9.5.8-6.2 1.5.2-.7 6.2 4.5.6 1-7 1.5.2-1.3 8.6zM29.1 75.2c.5 1.2.6 2.6.1 3.9-.3 1.3-1.2 2.4-2.3 3.2-1 .6-2.3.7-3.4.4l.5-1.6c.8.2 1.6.1 2.2-.3.8-.5 1.3-1.3 1.5-2.1.3-.8.3-1.7 0-2.5-.2-.5-.7-.9-1.3-1.1-1-.3-2 .1-2.6 1.5l-.8 1.7c-.9 1.8-2.4 2.9-4.3 2.3-.9-.3-1.7-1-2.1-1.9-.5-1.1-.6-2.4-.2-3.6.3-1.2 1.1-2.2 2.2-2.8.9-.5 2-.6 3-.4l-.6 1.7c-.6-.2-1.2-.1-1.8.1-1.5.9-2.1 2.8-1.4 4.4.3.5.7.8 1.2.9 1 .3 2-.3 2.3-1.3.3-.7.6-1.3 1-2 1-2 2.6-3 4.6-2.4 1.1.3 1.8 1 2.2 1.9zM23.1 63l10.3 5-.7 1.5-10.4-5-1.6 3.5-1.4-.7 4.1-8.5 1.4.7-1.7 3.5zM40.9 55.8l-3.1-.9-3.2 4.7 2 2.6-.9 1.4-8.2-11.1 1.1-1.6 13.3 3.5-1 1.4zm-11.6-3.2l4.3 5.7 2.6-3.8-6.9-1.9zM49.3 46.4l-5.6-2-2.5 2.6 3.9 3.8L44 52l-9.4-9 3.5-3.7c.8-.9 1.9-1.5 3.1-1.6 1 0 1.9.4 2.6 1.1.7.6 1.1 1.5 1.1 2.5 0 .6-.1 1.2-.4 1.8l5.9 2.1-1.1 1.2zm-10.1-6.1l-2.4 2.5 3.3 3.2 2.4-2.5c1.1-1.1 1.4-2.3.2-3.5s-2.4-.8-3.5.3zM66.2 34.2l-1-1.2c-.1 1.4-.9 2.7-2.1 3.4-1.1.7-2.4.9-3.7.6-1.8-.4-3-1.8-4.2-3.8-1.1-1.8-1.8-3.6-1.3-5.5.3-1.3 1.2-2.3 2.3-3 1.2-.7 2.6-1 4-.6.9.2 1.7.8 2.3 1.6l-1.5.9c-.3-.4-.7-.8-1.2-.9-.9-.3-1.9-.1-2.7.4-.8.5-1.3 1.2-1.5 2.1-.3 1.5.5 3 1.2 4.2s1.7 2.7 3.2 3.1c.8.2 1.7.1 2.5-.4.8-.4 1.3-1.2 1.6-2 .2-1.2 0-2.4-.7-3.4l-3 1.8-.8-1.3 4.3-2.5 3.6 6-1.3.5zM78 28c-1.2 2.4-4.1 3.5-6.6 2.5-1.8-.8-2.7-2.5-3.4-4.4s-1.2-3.8-.3-5.6c1.2-2.5 4.1-3.6 6.6-2.5 1.8.8 2.7 2.5 3.4 4.4s1.2 3.9.3 5.6zm-4.4-8.5c-1.7-.8-3.7 0-4.4 1.7-.6 1.4 0 3.1.4 4.4s1.2 2.9 2.5 3.6c.8.4 1.7.4 2.6.1.8-.3 1.5-.9 1.9-1.8.6-1.4 0-3.1-.4-4.3s-1.2-3.1-2.6-3.7zM83.9 27.6l-2.5-12.8 1.6-.3 2.2 11.3 6.1-1.2.3 1.5-7.7 1.5zM102.8 24.1c-.9.9-2.1 1.4-3.4 1.4l-4.5.2-.5-13 4.5-.2c1.3-.1 2.5.4 3.4 1.2 1.5 1.3 1.8 3.2 1.9 5.1s0 3.9-1.4 5.3zm-1.4-9.2c-.6-.6-1.5-.9-2.4-.9l-2.9.1.4 10 2.9-.1c.9 0 1.7-.4 2.3-1 1-1.1 1-2.8 1-4.1s-.3-3-1.3-4zM120.3 15.9L118 27.2l-1.6-.3 2.3-11.3-3.8-.8.3-1.5 9.2 1.9-.3 1.5-3.8-.8zM131.9 31.5l-.4-5.9-3.4-1.3-1.9 5.1-1.5-.6 4.5-12.2 4.8 1.8c1.2.3 2.2 1.1 2.7 2.2.4.9.4 1.9 0 2.8-.3.9-1 1.7-1.8 2.1-.6.2-1.2.4-1.8.3l.4 6.3-1.6-.6zm1.5-11.7l-3.3-1.2-1.6 4.3 3.3 1.2c1.4.5 2.7.3 3.3-1.2s-.2-2.6-1.7-3.1zM144.2 38.1l.6-3.2L140 32l-2.5 2.1-1.4-.8 10.6-8.9 1.6 1-2.6 13.6-1.5-.9zm2.4-11.8l-5.4 4.6 4 2.4 1.4-7zM154.2 46l2-12.1-6.8 7.9-1.2-1 8.5-9.9 1.4 1.2-2 12.1 6.9-8 1.2 1-8.5 9.9-1.5-1.1zM164.6 56.1c-1.3-.2-2.5-.9-3.3-2-.9-1-1.4-2.3-1.4-3.7.1-1.2.6-2.3 1.5-3.1l1.1 1.3c-.6.5-.9 1.2-1 2 0 .9.4 1.8 1 2.5.5.7 1.3 1.2 2.1 1.4.6.1 1.2-.1 1.6-.5.8-.6 1-1.7.2-3l-1.1-1.8c-1-1.7-1.1-3.6.5-4.9.8-.6 1.8-.9 2.7-.7 2.5.4 4.4 2.7 4.3 5.2-.1 1.1-.6 2-1.4 2.7l-1.1-1.3c.4-.4.7-.9.9-1.5.1-1.8-1.2-3.3-2.9-3.6-.5 0-1 .1-1.4.5-.7.7-.8 1.9-.2 2.7.4.6.7 1.3 1.1 1.9 1.1 1.9 1 3.8-.6 5.1-.6.7-1.6.9-2.6.8zM175.9 64.8c-1.1-.4-2-1.2-2.5-2.2l-1.6-2.8-4.4 2.5-.8-1.4 11.4-6.4 2.4 4.2c.7 1 .9 2.3.6 3.5-.3 1-1 1.8-1.9 2.2-.9.5-2.1.7-3.2.4zm3.1-5.5l-1.6-2.7-4.3 2.5 1.6 2.8c.9 1.5 2 1.9 3.5 1s1.6-2.1.8-3.6zM174.9 78.6l2.5-2.1-2-5.3-3.3.1-.6-1.6 13.8-.3.7 1.8-10.6 8.9-.5-1.5zm9.3-7.7l-7.1.2 1.6 4.3 5.5-4.5zM177.8 91.1l4.9-3.4-.7-3.5-5.3 1-.3-1.6 12.8-2.4.9 5c.3 1.2.1 2.4-.5 3.5-.6.8-1.4 1.3-2.4 1.5-.9.2-1.9 0-2.7-.5-.5-.4-.9-.8-1.2-1.4l-5.1 3.6-.4-1.8zm10.8-4.7L188 83l-4.5.8.6 3.4c.3 1.5 1.1 2.5 2.7 2.2s2.1-1.5 1.8-3zM178.4 96.7l13-.2.2 8.7h-1.5l-.1-7-4 .1.1 6.2h-1.5l-.1-6.2-4.5.1.1 7.1h-1.5l-.2-8.8zM177.1 117.1l11.3-4.7-10.3-1.7.2-1.6 12.8 2.1-.3 1.8-11.4 4.6 10.4 1.7-.2 1.6-12.8-2 .3-1.8zM174 131.3c-1.1-2.5-.1-5.4 2.3-6.6 1.8-.9 3.6-.5 5.6.2s3.7 1.5 4.5 3.3c.5 1.2.6 2.6.1 3.8-.4 1.2-1.3 2.2-2.4 2.8-1 .5-2.2.6-3.2.2l.6-1.6c.7.2 1.4.2 2-.1.8-.4 1.4-1.1 1.7-1.9.3-.8.2-1.8-.1-2.6-.7-1.4-2.3-2-3.6-2.4s-3-1-4.4-.3c-.8.4-1.4 1.1-1.7 1.9-.3.8-.3 1.8.1 2.6.3.6.9 1.1 1.5 1.3l-.6 1.6c-1-.4-1.9-1.2-2.4-2.2zM173.6 141.6l-4.6-2.5.8-1.4 4.6 2.5 8.9-.2-.9 1.6-7.1.1 3.8 5.9-.8 1.5-4.7-7.5zM79 188.7l.4-1.8 6.1-4.8c.5-.4.8-.9 1-1.5.2-.8-.2-1.6-1-1.9h-.2c-.9-.2-1.8.4-2 1.3v.2l-2.3-.5c.3-2 2.2-3.4 4.3-3 .2 0 .4.1.5.1 2 .2 3.4 2.1 3.1 4 0 .1 0 .2-.1.3-.3 1.1-1 2.1-2 2.8l-4.3 3.4 5 1.1-.4 2-8.1-1.7zM99.5 190.7c-.8.7-1.9 1.1-3 1-1.1 0-2.2-.5-2.9-1.3-1.2-1.3-1.3-3.5-1.2-5.6s.5-4.2 1.9-5.4c1.8-1.4 4.3-1.3 5.9.4 1.2 1.4 1.3 3.5 1.2 5.6s-.5 4.1-1.9 5.3zm-2.3-10.2c-2.4-.1-2.3 2.7-2.4 4.4s-.5 4.5 1.9 4.6 2.3-2.7 2.4-4.4.4-4.4-1.9-4.6zM105.9 191.6l-.2-1.8 4.4-6.3c.4-.5.5-1.1.5-1.7 0-.8-.7-1.5-1.5-1.5h-.2c-.9.1-1.6.9-1.6 1.8v.2l-2.3.2c-.3-2 1.1-3.9 3.2-4.2h.6c2-.3 3.8 1 4.2 2.9v.3c0 1.2-.4 2.3-1.1 3.2l-3.1 4.5 5.1-.4.2 2.1-8.2.7zM122.1 189.3l-2.3-9.8-2.3 2.6-.6-2.4 2.6-2.9 1.9-.4 2.9 12.4-2.2.5z"/></svg>